<svg xmlns="http://www.w3.org/2000/svg" xmlns:xlink="http://www.w3.org/1999/xlink" width="40.828" height="41.594" viewBox="0 0 40.828 41.594">
  <defs>
    <linearGradient id="linear-gradient" x1="0.5" x2="0.5" y2="1" gradientUnits="objectBoundingBox">
      <stop offset="0" stop-color="#33b4ff"/>
      <stop offset="1" stop-color="#00649e"/>
    </linearGradient>
  </defs>
  <g id="Group_1204471" data-name="Group 1204471" transform="translate(-169 -1760)">
    <g id="Group_1204469" data-name="Group 1204469">
      <g id="Group_1204468" data-name="Group 1204468">
        <g id="Group_1204303" data-name="Group 1204303" transform="translate(168 1759.6)">
          <g id="Group_1204298" data-name="Group 1204298" transform="translate(1 29.49)">
            <path id="Path_1803985" data-name="Path 1803985" d="M23.838,56.526v1.34a.639.639,0,0,1-.638.638H1.638A.639.639,0,0,1,1,57.866v-1.34A10.536,10.536,0,0,1,11.526,46h1.786A10.536,10.536,0,0,1,23.838,56.526Z" transform="translate(-1 -46)" fill="url(#linear-gradient)"/>
          </g>
          <g id="Group_1204299" data-name="Group 1204299" transform="translate(22.307 29.49)">
            <path id="Path_1803986" data-name="Path 1803986" d="M53.921,56.526v1.34a.686.686,0,0,1-.638.638h-16.2a1.887,1.887,0,0,0,.128-.638A12.666,12.666,0,0,0,34.4,48.871,10.4,10.4,0,0,1,41.609,46h1.786A10.536,10.536,0,0,1,53.921,56.526Z" transform="translate(-34.4 -46)" fill="url(#linear-gradient)"/>
          </g>
          <g id="Group_1204300" data-name="Group 1204300" transform="translate(7.379 17.752)">
            <path id="Path_1803987" data-name="Path 1803987" d="M49.279,32.64a5.04,5.04,0,1,1-5.04-5.04A5.05,5.05,0,0,1,49.279,32.64Z" transform="translate(-21.21 -27.6)" fill="url(#linear-gradient)"/>
            <path id="Path_1803988" data-name="Path 1803988" d="M21.079,32.64a5.04,5.04,0,1,1-5.04-5.04A5.05,5.05,0,0,1,21.079,32.64Z" transform="translate(-11 -27.6)" fill="url(#linear-gradient)"/>
          </g>
          <g id="Group_1204301" data-name="Group 1204301" transform="translate(9.804 0.4)">
            <path id="Path_1803989" data-name="Path 1803989" d="M31.514,6.46c0,3.381-3.764,6.06-8.357,6.06a6.934,6.934,0,0,1-1.148-.064l-4.976,3.062a.641.641,0,0,1-.957-.7l1.148-4.083A5.462,5.462,0,0,1,14.8,6.46C14.8,3.079,18.564.4,23.093.4c4.657,0,8.421,2.743,8.421,6.06Z" transform="translate(-14.8 -0.4)" fill="url(#linear-gradient)"/>
          </g>
          <g id="Group_1204302" data-name="Group 1204302" transform="translate(21.924 3.845)">
            <path id="Path_1803990" data-name="Path 1803990" d="M45.283,18.559a.635.635,0,0,1-.893.829l-4.4-2.743A9.177,9.177,0,0,1,33.8,15.178c3.445-1.148,5.869-3.7,5.869-6.762A6.083,6.083,0,0,0,39.031,5.8c4.083,0,7.4,2.488,7.4,5.486a4.832,4.832,0,0,1-2.105,3.828Z" transform="translate(-33.8 -5.8)" fill="url(#linear-gradient)"/>
          </g>
        </g>
      </g>
    </g>
  </g>
</svg>
